<?xml version="1.0" encoding="UTF-8"?>
<svg version="1.1" xmlns="http://www.w3.org/2000/svg" width="1024" height="1024">
<path d="M0 0 C337.92 0 675.84 0 1024 0 C1024 337.92 1024 675.84 1024 1024 C686.08 1024 348.16 1024 0 1024 C0 686.08 0 348.16 0 0 Z " fill="#F8F8F8" transform="translate(0,0)"/>
<path d="M0 0 C0.88558594 0.78503906 1.77117187 1.57007813 2.68359375 2.37890625 C3.17456543 2.80961426 3.66553711 3.24032227 4.17138672 3.68408203 C13.67698421 12.05009315 22.07996515 21.07414565 29.76171875 31.15234375 C33.52638658 35.5703853 33.52638658 35.5703853 38.71875 37.7265625 C43.20381557 37.09571513 46.92320703 35.92877621 51.05859375 34.06640625 C72.91815592 24.55984571 98.74964822 24.61010226 120.93359375 32.94140625 C123.63595867 34.04224272 126.27096415 35.16890726 128.87109375 36.4921875 C131.85034569 37.94970946 133.38974651 38.01233841 136.68359375 37.37890625 C142.1648006 33.19408442 146.26507237 27.47116637 150.4921875 22.0859375 C160.95081155 9.16646074 172.75361214 -1.55157335 186.68359375 -10.62109375 C187.59367187 -11.22824219 188.50375 -11.83539063 189.44140625 -12.4609375 C217.52126134 -30.10084647 255.35276843 -35.28975174 287.55859375 -28.59375 C312.76435222 -22.81244819 334.60815275 -12.24316781 353.68359375 5.37890625 C354.44881348 6.07838379 354.44881348 6.07838379 355.22949219 6.79199219 C367.24424618 17.89249731 376.04731147 30.69848399 383.98071289 44.94555664 C387.75045951 51.699775 391.1302844 57.44062101 398.68359375 60.37890625 C403.08980516 61.33351173 407.55255763 61.71038338 412.03320312 62.15625 C419.18457638 62.98912021 422.9616902 64.58537366 428.05859375 69.81640625 C430.54459316 75.26648187 430.44058654 80.48785348 429.68359375 86.37890625 C428.65509264 89.0379579 427.66230584 90.23059027 425.68359375 92.37890625 C425.22331787 92.90621338 424.76304199 93.43352051 424.28881836 93.97680664 C421.11474079 96.74923667 416.023543 96.59291263 411.93164062 97.10742188 C408.48514049 97.61434835 406.17634921 98.03948799 403.2734375 100.0390625 C399.14019844 106.12213424 398.91010815 114.02591439 397.87109375 121.12890625 C392.03990621 158.70068075 376.30523394 191.36318497 345.53125 214.77734375 C314.9967489 236.46609241 279.80037522 248.11481828 242.10546875 242.6953125 C211.76764573 237.39850992 186.10967152 223.22990833 163.68359375 202.37890625 C163.07773437 201.8271875 162.471875 201.27546875 161.84765625 200.70703125 C139.59702482 179.60549346 125.46303972 146.74516876 124.59472656 116.25878906 C124.23948526 95.5907335 124.23948526 95.5907335 125.2890625 86.90625 C126.04496522 80.11137924 123.88459214 74.69707807 120.13671875 69.046875 C113.22472892 60.50200684 104.27513838 58.04743725 93.68359375 56.37890625 C81.27724069 55.2701259 68.6915752 57.45502345 57.68359375 63.37890625 C56.59046875 63.95640625 55.49734375 64.53390625 54.37109375 65.12890625 C50.67402046 68.2241304 48.78023818 70.62910873 47.68359375 75.37890625 C47.6649536 78.51045211 47.85001288 81.58069335 48.11450195 84.69995117 C49.61011276 102.54381087 50.09128325 120.92659722 45.68359375 138.37890625 C45.52262207 139.05211914 45.36165039 139.72533203 45.19580078 140.41894531 C36.50767002 176.1896739 12.63624691 204.69518194 -17.64453125 224.5625 C-46.93172626 242.3638401 -84.49172666 247.88947768 -117.9230957 240.14550781 C-120.06735819 239.59513387 -122.19152024 238.99949331 -124.31640625 238.37890625 C-124.97366699 238.1969873 -125.63092773 238.01506836 -126.30810547 237.82763672 C-145.82709688 232.33561977 -162.91465829 222.44562657 -178.31640625 209.37890625 C-179.25097656 208.60289062 -180.18554688 207.826875 -181.1484375 207.02734375 C-208.62237311 183.19019385 -220.83987003 149.59512098 -225.88574219 114.47363281 C-226.66251687 109.28879158 -227.41116146 104.86685902 -230.31640625 100.37890625 C-233.80561937 98.05276417 -235.49951335 98.09858037 -239.62890625 97.94140625 C-246.07935762 97.51854333 -250.12225047 96.75096655 -254.62890625 91.87890625 C-258.09839166 86.73892787 -257.79764852 81.37724745 -257.31640625 75.37890625 C-255.77908401 71.15127009 -253.83526754 68.19399529 -250.31640625 65.37890625 C-245.8655258 63.62454461 -241.6861677 62.9832739 -236.94140625 62.50390625 C-228.15649311 61.46339019 -222.13502357 59.24189078 -216.31640625 52.37890625 C-212.70357245 47.57606321 -209.41681919 42.62567072 -206.37890625 37.44140625 C-200.18886538 26.99978468 -192.64550316 18.12630345 -184.31640625 9.37890625 C-183.66027344 8.65832031 -183.00414062 7.93773437 -182.328125 7.1953125 C-136.09725594 -42.00541967 -50.10313289 -42.80728293 0 0 Z " fill="#D19122" transform="translate(425.31640625,365.62109375)"/>
<path d="M0 0 C1.17433594 0.25652344 2.34867188 0.51304687 3.55859375 0.77734375 C31.52396558 7.55770966 54.81233901 24.26653934 70.3125 48.5 C84.29125464 72.12606418 89.32210063 101.23173876 82.9375 128.0625 C75.78700498 155.66559019 58.8837186 180.92982481 34.15063477 195.65844727 C8.68926337 210.16440154 -21.35981312 215.74578143 -50 208 C-66.1674317 203.19600144 -80.16263873 196.03245986 -93 185 C-93.99193359 184.22462891 -93.99193359 184.22462891 -95.00390625 183.43359375 C-116.0968249 166.43142296 -126.99062961 139.19695505 -130 113 C-130.46572011 107.3089003 -130.39022686 101.69231279 -130 96 C-129.95601074 95.33307129 -129.91202148 94.66614258 -129.86669922 93.97900391 C-127.70219441 65.15837877 -113.28231158 40.07983075 -91.7265625 21.16015625 C-66.05683733 0.82296711 -31.99439861 -7.07840677 0 0 Z " fill="#F8F8F8" transform="translate(709,368)"/>
<path d="M0 0 C1.53088712 1.32177775 3.05198673 2.65498644 4.5625 4 C5.35527344 4.639375 6.14804687 5.27875 6.96484375 5.9375 C26.34900305 22.10627742 38.23309075 46.22395334 41.5625 71 C43.86991283 102.38692681 36.40254752 131.49948073 15.7265625 155.5859375 C15.01242187 156.38257813 14.29828125 157.17921875 13.5625 158 C12.95148438 158.69351563 12.34046875 159.38703125 11.7109375 160.1015625 C-7.44062855 180.55706496 -35.84639701 191.4167565 -63.44628906 192.33203125 C-92.95851898 192.82860414 -120.50498322 181.65901523 -141.97363281 161.56201172 C-161.48250102 142.46092676 -173.10730926 115.65836205 -173.67236328 88.39013672 C-173.86732775 58.40963289 -163.61313613 30.51805571 -142.5625 9.00390625 C-128.31962756 -4.95282108 -109.14261322 -15.55160519 -89.4375 -19 C-87.72046875 -19.30357422 -87.72046875 -19.30357422 -85.96875 -19.61328125 C-56.14639103 -24.21820433 -24.17673125 -18.9851761 0 0 Z " fill="#F8F8F8" transform="translate(403.4375,387)"/>
<path d="M0 0 C0.66 0.33 1.32 0.66 2 1 C1.21753906 1.84304688 0.43507812 2.68609375 -0.37109375 3.5546875 C-1.39334825 4.66134834 -2.41547716 5.76812521 -3.4375 6.875 C-3.95376953 7.43058594 -4.47003906 7.98617188 -5.00195312 8.55859375 C-7.82104736 11.54749315 -7.82104736 11.54749315 -10 15 C-11.64363134 15.72159424 -13.31050386 16.39351421 -15 17 C-13.67879172 14.06769807 -12.25361803 12.01335101 -9.9609375 9.765625 C-9.38085938 9.19199219 -8.80078125 8.61835938 -8.203125 8.02734375 C-7.59984375 7.44082031 -6.9965625 6.85429687 -6.375 6.25 C-5.76398438 5.64800781 -5.15296875 5.04601562 -4.5234375 4.42578125 C-3.02011376 2.94594695 -1.51065144 1.47235324 0 0 Z " fill="#CD8611" transform="translate(248,368)"/>
<path d="M0 0 C0.99 0 1.98 0 3 0 C1.60667426 3.36720387 0.0210714 4.9859524 -3 7 C-3 3.47190093 -2.35723489 2.53184488 0 0 Z " fill="#D08A1A" transform="translate(772,536)"/>
<path d="M0 0 C-1.39332574 3.36720387 -2.9789286 4.9859524 -6 7 C-6.66 6.67 -7.32 6.34 -8 6 C-7.0479279 4.99403703 -6.08812654 3.99538437 -5.125 3 C-4.59132813 2.443125 -4.05765625 1.88625 -3.5078125 1.3125 C-2 0 -2 0 0 0 Z " fill="#CD830E" transform="translate(767,545)"/>
<path d="M0 0 C-1.15173355 2.46800047 -2.04783565 4.04783565 -4 6 C-4.99 5.67 -5.98 5.34 -7 5 C-2.25 0 -2.25 0 0 0 Z " fill="#CE8815" transform="translate(583,382)"/>
</svg>
